{"glyphs":{":":{"x_min":0,"x_max":271,"ha":271,"o":"m 40 0 l 125 0 l 139 80 l 54 80 z m 132 520 l 217 520 l 231 600 l 146 600 z"},"$":{"x_min":0,"x_max":646,"ha":646,"o":"m 315 -8 b 451 7 570 101 590 216 b 606 309 559 400 468 433 l 397 459 l 444 728 b 487 722 517 697 522 655 l 606 679 b 606 754 541 801 459 810 l 471 880 l 411 880 l 399 809 b 384 807 369 805 354 801 b 225 766 134 660 147 551 b 154 489 194 442 252 421 l 325 394 l 269 73 b 179 82 125 144 124 214 l 40 191 b 38 84 126 0 254 -9 l 242 -80 l 302 -80 l 315 -8 z m 295 497 b 260 510 235 532 231 568 b 223 633 282 700 364 722 b 371 724 377 726 384 727 l 341 480 z m 427 357 b 487 334 516 285 506 227 b 494 157 418 90 329 75 l 382 374 z"},"?":{"x_min":0,"x_max":500,"ha":500,"o":"m 420 514 b 464 557 484 613 480 669 b 473 767 368 824 258 798 b 153 773 65 675 82 582 l 160 600 b 156 658 214 705 282 721 b 350 737 397 704 401 650 b 403 620 389 589 364 565 l 238 441 b 197 400 168 352 159 304 l 144 220 l 227 220 l 242 304 b 247 333 265 363 293 390 l 420 514 z m 204 80 l 119 80 l 105 0 l 190 0 z"},"<":{"x_min":0,"x_max":580,"ha":580,"o":"m 500 485 l 75 345 l 60 260 l 435 120 l 448 190 l 157 300 l 486 410 z"},"'":{"x_min":0,"x_max":214,"ha":214,"o":"m 134 800 l 99 600 l 129 600 l 205 720 l 219 800 z"},"=":{"x_min":0,"x_max":562,"ha":562,"o":"m 60 180 l 460 180 l 474 260 l 74 260 z m 88 340 l 488 340 l 502 420 l 102 420 z"},"a":{"x_min":0,"x_max":585,"ha":585,"o":"m 341 490 l 388 220 l 200 220 z m 425 0 l 505 0 l 401 600 l 316 600 l 0 0 l 85 0 l 159 140 l 401 140 z"},"L":{"x_min":0,"x_max":534,"ha":534,"o":"m 40 0 l 480 0 l 494 80 l 139 80 l 266 800 l 181 800 z"},"3":{"x_min":0,"x_max":680,"ha":680,"o":"m 275 360 l 315 360 b 409 360 474 292 460 215 b 446 138 358 70 264 70 b 212 70 171 99 145 130 l 70 85 b 107 34 180 -10 260 -10 b 398 -10 519 83 540 205 b 554 283 521 367 458 406 b 517 446 562 504 575 575 b 596 696 507 810 385 810 b 310 810 245 763 195 705 l 253 659 b 285 696 333 730 381 730 b 458 730 509 662 495 585 b 481 508 407 440 330 440 l 290 440 z"},";":{"x_min":0,"x_max":287,"ha":287,"o":"m 155 80 l 70 80 l 56 0 l 96 0 b 88 -44 69 -80 47 -80 l 40 -120 b 84 -120 129 -66 141 0 z m 148 520 l 233 520 l 247 600 l 162 600 z"},"J":{"x_min":0,"x_max":628,"ha":628,"o":"m 235 -10 b 368 -10 485 97 508 230 l 608 800 l 523 800 l 426 242 b 411 154 322 70 234 70 b 146 70 87 142 103 230 l 23 230 b 0 97 102 -10 235 -10 z"},"V":{"x_min":0,"x_max":705,"ha":705,"o":"m 130 800 l 40 800 l 179 0 l 284 0 l 705 800 l 610 800 l 248 110 z"},"\"":{"x_min":0,"x_max":389,"ha":389,"o":"m 304 800 l 269 600 l 299 600 l 375 720 l 389 800 z m 134 800 l 99 600 l 129 600 l 205 720 l 219 800 z"},"7":{"x_min":0,"x_max":680,"ha":680,"o":"m 641 800 l 141 800 l 127 720 l 487 720 l 0 0 l 100 0 z"},"S":{"x_min":0,"x_max":626,"ha":626,"o":"m 258 -10 b 409 -10 548 91 570 216 b 586 309 539 399 448 433 l 275 497 b 240 510 215 532 211 568 b 203 633 262 700 344 722 b 426 744 494 720 502 655 l 586 679 b 586 784 457 834 334 801 b 205 766 114 660 127 551 b 134 489 174 442 232 421 l 407 357 b 468 335 496 285 486 227 b 472 148 376 72 272 72 b 168 72 105 138 104 214 l 20 191 b 18 78 117 -10 258 -10 z"},"}":{"x_min":0,"x_max":429,"ha":429,"o":"m 253 302 b 259 334 352 390 369 400 b 355 410 282 466 288 498 l 319 673 b 329 730 321 800 161 800 b 251 756 248 726 239 673 l 204 478 b 199 448 229 415 245 400 b 224 385 182 352 177 322 l 142 127 b 133 74 126 44 20 0 b 180 0 212 70 222 127 l 253 302 z"},"Z":{"x_min":0,"x_max":761,"ha":761,"o":"m 614 80 l 149 80 l 727 720 l 741 800 l 161 800 l 147 720 l 612 720 l 34 80 l 20 0 l 600 0 z"},"x":{"x_min":0,"x_max":646,"ha":646,"o":"m 525 0 l 366 290 l 646 600 l 540 600 l 326 363 l 196 600 l 106 600 l 270 300 l 0 0 l 105 0 l 310 227 l 434 0 z"},")":{"x_min":0,"x_max":337,"ha":337,"o":"m 108 0 b 185 127 237 260 262 400 b 287 540 281 673 249 800 l 161 800 b 199 669 206 538 182 400 b 158 262 104 131 20 0 l 108 0 z"},"&":{"x_min":0,"x_max":728,"ha":728,"o":"m 288 74 b 220 68 111 87 129 189 b 142 264 231 313 324 367 l 461 171 b 413 122 349 79 288 74 z m 395 409 b 484 464 569 542 588 640 b 606 731 536 810 414 810 b 210 810 153 609 247 476 l 276 435 b 170 373 62 306 43 200 b 14 38 167 -20 278 -10 b 363 -3 446 42 510 103 l 583 0 l 682 0 l 566 165 b 609 221 653 295 688 378 l 595 378 b 572 325 545 277 516 235 l 395 409 z m 318 518 b 262 600 280 731 411 735 b 489 738 509 684 501 640 b 489 574 423 524 346 477 z"},"_":{"x_min":0,"x_max":574,"ha":574,"o":"m 80 0 l 480 0 l 494 80 l 94 80 z"},"v":{"x_min":0,"x_max":555,"ha":555,"o":"m 239 0 l 555 600 l 461 600 l 212 128 l 129 600 l 40 600 l 144 0 z"},"O":{"x_min":0,"x_max":873,"ha":873,"o":"m 767 405 b 735 223 555 70 378 70 b 201 70 95 213 127 395 b 159 577 338 730 515 730 b 692 730 799 587 767 405 z m 847 400 b 887 627 740 810 519 810 b 298 810 87 627 47 400 b 7 173 153 -10 374 -10 b 595 -10 807 173 847 400 z"},"(":{"x_min":0,"x_max":337,"ha":337,"o":"m 176 0 b 138 131 132 262 156 400 b 180 538 233 669 317 800 l 229 800 b 152 673 101 540 76 400 b 51 260 56 127 88 0 z"},"C":{"x_min":0,"x_max":753,"ha":753,"o":"m 509 810 b 288 810 87 627 47 400 b 7 173 153 -10 374 -10 b 469 -10 562 24 640 80 l 601 143 b 538 98 454 70 378 70 b 201 70 95 208 127 390 b 159 572 328 730 505 730 b 581 730 645 702 692 657 l 753 720 b 694 776 604 810 509 810 z"},"W":{"x_min":0,"x_max":1070,"ha":1070,"o":"m 544 513 l 439 513 l 228 110 l 110 800 l 20 800 l 159 0 l 264 0 l 475 400 l 544 0 l 649 0 l 1070 800 l 975 800 l 613 110 z"},"A":{"x_min":0,"x_max":730,"ha":730,"o":"m 452 690 l 519 300 l 247 300 z m 570 0 l 650 0 l 511 800 l 421 800 l 0 0 l 90 0 l 206 220 l 532 220 z"},"f":{"x_min":0,"x_max":511,"ha":511,"o":"m 125 0 l 171 260 l 421 260 l 435 340 l 185 340 l 217 520 l 497 520 l 511 600 l 146 600 l 40 0 z"},"Q":{"x_min":0,"x_max":913,"ha":913,"o":"m 767 405 b 754 330 716 260 663 204 l 591 300 l 491 300 l 603 150 b 536 100 457 70 378 70 b 201 70 95 213 127 395 b 159 577 338 730 515 730 b 692 730 799 587 767 405 z m 847 400 b 887 627 740 810 519 810 b 298 810 87 627 47 400 b 7 173 153 -10 374 -10 b 473 -10 569 26 650 87 l 716 0 l 816 0 l 711 140 b 780 211 830 301 847 400 z"},"w":{"x_min":0,"x_max":808,"ha":808,"o":"m 356 271 l 403 0 l 492 0 l 808 600 l 718 600 l 466 119 l 418 392 l 331 392 l 187 119 l 105 600 l 20 600 l 124 0 l 213 0 z"},"-":{"x_min":0,"x_max":534,"ha":534,"o":"m 80 280 l 440 280 l 454 360 l 94 360 z"},"E":{"x_min":0,"x_max":666,"ha":666,"o":"m 40 0 l 525 0 l 539 80 l 139 80 l 188 360 l 548 360 l 563 440 l 203 440 l 252 720 l 652 720 l 666 800 l 181 800 z"},"s":{"x_min":0,"x_max":486,"ha":486,"o":"m 197 -10 b 308 -10 415 63 432 162 b 445 236 412 310 343 333 l 217 375 b 195 382 182 400 180 422 b 176 461 211 506 264 521 b 318 536 356 517 362 467 l 446 493 b 446 590 346 627 255 602 b 158 575 85 490 95 403 b 100 354 129 311 174 296 l 299 254 b 340 240 355 204 349 170 b 341 122 280 74 211 74 b 143 74 104 118 103 181 l 20 156 b 18 56 93 -10 197 -10 z"},">":{"x_min":0,"x_max":580,"ha":580,"o":"m 423 304 l 94 194 l 80 120 l 505 260 l 520 344 l 145 484 l 133 414 z"},"l":{"x_min":0,"x_max":429,"ha":429,"o":"m 40 0 l 375 0 l 389 80 l 139 80 l 231 600 l 146 600 z"},"8":{"x_min":0,"x_max":680,"ha":680,"o":"m 152 220 b 166 297 264 370 358 370 b 452 370 506 297 492 220 b 478 143 379 70 285 70 b 191 70 138 143 152 220 z m 72 220 b 51 98 143 -10 281 -10 b 419 -10 551 98 572 220 b 586 298 553 377 490 416 b 549 456 594 519 607 590 b 628 711 548 810 426 810 b 304 810 188 711 167 590 b 154 519 177 456 222 416 b 145 377 86 298 72 220 z m 247 590 b 261 667 345 730 422 730 b 499 730 541 667 527 590 b 513 513 429 450 352 450 b 275 450 233 513 247 590 z"},"\\":{"x_min":0,"x_max":600,"ha":600,"o":"m 520 0 l 160 800 l 80 800 l 440 0 z"},"e":{"x_min":0,"x_max":511,"ha":511,"o":"m 40 0 l 405 0 l 419 80 l 139 80 l 171 260 l 421 260 l 435 340 l 185 340 l 217 520 l 497 520 l 511 600 l 146 600 z"},"b":{"x_min":0,"x_max":529,"ha":529,"o":"m 171 260 l 321 260 b 371 260 395 220 386 170 b 377 120 330 80 280 80 l 139 80 z m 217 520 l 353 520 b 403 520 426 480 417 430 b 408 380 361 340 311 340 l 185 340 z m 265 0 b 359 0 448 76 465 170 b 475 226 457 276 421 307 b 459 338 487 381 496 430 b 513 524 451 600 357 600 l 146 600 l 40 0 z"},"%":{"x_min":0,"x_max":700,"ha":700,"o":"m 430 155 b 439 204 490 248 539 248 b 588 248 615 214 606 165 b 597 116 547 72 498 72 b 449 72 421 106 430 155 z m 358 160 b 342 72 402 0 490 0 b 578 0 662 72 678 160 b 694 248 634 320 546 320 b 458 320 374 248 358 160 z m 115 635 b 124 684 174 728 223 728 b 272 728 300 694 291 645 b 282 596 231 552 182 552 b 133 552 106 586 115 635 z m 43 640 b 27 552 87 480 175 480 b 263 480 347 552 363 640 b 379 728 319 800 231 800 b 143 800 59 728 43 640 z m 651 800 l 566 800 l 65 0 l 150 0 z"},"m":{"x_min":0,"x_max":696,"ha":696,"o":"m 146 600 l 40 0 l 125 0 l 202 435 l 287 180 l 387 180 l 562 435 l 485 0 l 570 0 l 676 600 l 576 600 l 347 265 l 236 600 z"},"#":{"x_min":0,"x_max":752,"ha":752,"o":"m 515 280 l 558 520 l 698 520 l 712 600 l 572 600 l 608 800 l 528 800 l 492 600 l 332 600 l 368 800 l 288 800 l 252 600 l 112 600 l 98 520 l 238 520 l 195 280 l 55 280 l 40 200 l 180 200 l 145 0 l 225 0 l 260 200 l 420 200 l 385 0 l 465 0 l 500 200 l 640 200 l 655 280 z m 318 520 l 478 520 l 435 280 l 275 280 z"},",":{"x_min":0,"x_max":235,"ha":235,"o":"m 155 80 l 70 80 l 56 0 l 96 0 b 88 -44 69 -80 47 -80 l 40 -120 b 84 -120 129 -66 141 0 z"},"n":{"x_min":0,"x_max":626,"ha":626,"o":"m 125 0 l 206 460 l 415 0 l 500 0 l 606 600 l 521 600 l 440 140 l 231 600 l 146 600 l 40 0 z"},"h":{"x_min":0,"x_max":626,"ha":626,"o":"m 40 0 l 125 0 l 171 260 l 461 260 l 415 0 l 500 0 l 606 600 l 521 600 l 475 340 l 185 340 l 231 600 l 146 600 z"},"z":{"x_min":0,"x_max":586,"ha":586,"o":"m 474 80 l 144 80 l 552 520 l 566 600 l 126 600 l 112 520 l 442 520 l 34 80 l 20 0 l 460 0 z"},"B":{"x_min":0,"x_max":680,"ha":680,"o":"m 418 360 b 495 360 538 297 524 220 b 510 143 436 80 359 80 l 139 80 l 188 360 z m 462 720 b 539 720 581 657 567 580 b 553 503 480 440 403 440 l 203 440 l 252 720 z m 345 0 b 467 0 583 98 604 220 b 618 299 589 368 533 407 b 591 447 635 510 647 580 b 668 702 588 800 466 800 l 181 800 l 40 0 z"},"K":{"x_min":0,"x_max":716,"ha":716,"o":"m 625 0 l 338 443 l 696 800 l 576 800 l 199 424 l 266 800 l 181 800 l 40 0 l 125 0 l 174 279 l 279 383 l 525 0 z"},"R":{"x_min":0,"x_max":720,"ha":720,"o":"m 502 720 b 579 720 621 657 607 580 b 593 503 510 440 433 440 l 203 440 l 252 720 z m 438 360 l 555 0 l 645 0 l 524 380 b 606 415 671 491 687 580 b 708 702 628 800 506 800 l 181 800 l 40 0 l 125 0 l 188 360 z"},"T":{"x_min":0,"x_max":739,"ha":739,"o":"m 80 720 l 360 720 l 233 0 l 318 0 l 445 720 l 725 720 l 739 800 l 94 800 z"},"P":{"x_min":0,"x_max":710,"ha":710,"o":"m 502 720 b 579 720 621 657 607 580 b 593 503 510 440 433 440 l 203 440 l 252 720 z m 428 360 b 550 360 666 458 687 580 b 708 702 628 800 506 800 l 181 800 l 40 0 l 125 0 l 188 360 z"},"|":{"x_min":0,"x_max":388,"ha":388,"o":"m 60 -120 l 145 -120 l 328 920 l 243 920 z"},"t":{"x_min":0,"x_max":539,"ha":539,"o":"m 80 520 l 260 520 l 168 0 l 253 0 l 345 520 l 525 520 l 539 600 l 94 600 z"},"M":{"x_min":0,"x_max":891,"ha":891,"o":"m 181 800 l 40 0 l 125 0 l 240 650 l 391 290 l 476 290 l 760 650 l 645 0 l 730 0 l 871 800 l 771 800 l 444 380 l 271 800 z"},"g":{"x_min":0,"x_max":648,"ha":648,"o":"m 473 152 b 425 105 363 70 299 70 b 177 70 103 173 125 300 b 147 427 268 530 390 530 b 441 530 480 512 511 480 l 575 542 b 531 584 471 610 400 610 b 234 610 75 481 45 310 b 15 139 124 -10 290 -10 b 388 -10 484 39 552 113 l 588 320 l 388 320 l 374 240 l 488 240 l 473 152 z"},"j":{"x_min":0,"x_max":503,"ha":503,"o":"m 304 180 b 294 125 239 70 184 70 b 129 70 92 115 102 170 l 22 170 b 4 71 86 -10 185 -10 b 284 -10 369 71 387 170 l 463 600 l 378 600 z"},"i":{"x_min":0,"x_max":271,"ha":271,"o":"m 50 0 l 135 0 l 241 600 l 156 600 z"},"y":{"x_min":0,"x_max":615,"ha":615,"o":"m 510 600 l 284 341 l 150 600 l 60 600 l 236 262 l 189 0 l 274 0 l 321 263 l 615 600 z"},"@":{"x_min":0,"x_max":893,"ha":893,"o":"m 470 436 b 501 437 534 423 552 404 l 508 230 b 486 215 459 204 432 204 b 368 203 325 254 335 318 b 345 382 406 435 470 436 z m 402 1 b 223 -11 105 112 124 288 b 143 464 313 627 491 639 b 669 651 788 518 769 342 b 763 281 720 178 649 170 b 608 166 575 200 583 230 l 637 439 b 609 490 546 512 481 511 b 376 509 277 422 260 317 b 243 212 315 128 420 130 b 447 130 489 139 520 163 b 538 116 580 89 642 93 b 756 101 839 245 850 348 b 873 568 712 734 489 719 b 266 704 65 512 42 292 b 19 72 181 -94 404 -79 b 455 -76 504 -63 550 -43 l 529 30 b 492 14 442 4 402 1 z"},".":{"x_min":0,"x_max":219,"ha":219,"o":"m 40 0 l 125 0 l 139 80 l 54 80 z"},"p":{"x_min":0,"x_max":524,"ha":524,"o":"m 374 520 b 424 520 447 480 438 430 b 429 380 376 340 326 340 l 185 340 l 217 520 z m 321 260 b 415 260 504 336 521 430 b 538 524 476 600 382 600 l 146 600 l 40 0 l 125 0 l 171 260 z"},"X":{"x_min":0,"x_max":821,"ha":821,"o":"m 369 404 l 0 0 l 110 0 l 412 328 l 595 0 l 690 0 l 465 400 l 821 800 l 711 800 l 423 476 l 241 800 l 146 800 z"},"*":{"x_min":0,"x_max":478,"ha":478,"o":"m 80 633 l 220 585 l 104 457 l 150 420 l 266 549 l 336 422 l 389 456 l 319 584 l 478 633 l 470 690 l 311 641 l 339 800 l 276 800 l 248 642 l 108 690 z"},"Y":{"x_min":0,"x_max":735,"ha":735,"o":"m 254 350 l 182 0 l 267 0 l 338 345 l 735 800 l 625 800 l 303 433 l 110 800 l 20 800 z"},"c":{"x_min":0,"x_max":555,"ha":555,"o":"m 427 121 b 385 90 330 70 279 70 b 157 70 83 173 105 300 b 127 427 248 530 370 530 b 421 530 459 510 490 479 l 555 542 b 511 584 451 610 380 610 b 214 610 55 481 25 310 b -5 139 104 -10 270 -10 b 341 -10 410 16 469 58 l 427 121 z"},"!":{"x_min":0,"x_max":306,"ha":306,"o":"m 40 0 l 125 0 l 139 80 l 54 80 z m 79 220 l 164 220 l 266 800 l 181 800 z"},"/":{"x_min":0,"x_max":520,"ha":520,"o":"m 520 800 l 440 800 l 80 0 l 160 0 z"},"[":{"x_min":0,"x_max":486,"ha":486,"o":"m 80 0 l 325 0 l 339 80 l 179 80 l 292 720 l 452 720 l 466 800 l 221 800 z"},"6":{"x_min":0,"x_max":680,"ha":680,"o":"m 123 354 b 87 300 67 238 73 175 b 85 42 208 -38 348 -2 b 488 34 591 171 579 304 b 566 443 434 521 290 477 l 506 800 l 422 800 l 123 354 z m 497 293 b 505 202 425 99 330 75 b 235 51 161 94 153 185 b 145 276 215 380 310 404 b 405 428 489 384 497 293 z"},"r":{"x_min":0,"x_max":554,"ha":554,"o":"m 397 277 b 459 304 509 362 521 430 b 538 524 476 600 382 600 l 146 600 l 40 0 l 125 0 l 171 260 l 311 260 l 395 0 l 485 0 z m 374 520 b 424 520 447 480 438 430 b 429 380 376 340 326 340 l 185 340 l 217 520 z"},"2":{"x_min":0,"x_max":680,"ha":680,"o":"m 558 80 l 190 80 l 525 424 b 564 464 597 529 607 585 b 628 707 539 810 417 810 b 295 810 178 707 157 585 l 247 585 b 261 662 336 730 413 730 b 490 730 541 662 527 585 b 521 552 493 506 470 482 l 78 80 l 64 0 l 544 0 z"},"{":{"x_min":0,"x_max":428,"ha":428,"o":"m 109 127 b 99 70 107 0 267 0 b 177 44 180 74 189 127 l 224 322 b 229 352 200 385 184 400 b 205 415 246 448 251 478 l 286 673 b 295 726 302 756 408 800 b 248 800 216 730 206 673 l 175 498 b 169 466 77 410 60 400 b 74 390 146 334 140 302 l 109 127 z"},"9":{"x_min":0,"x_max":680,"ha":680,"o":"m 557 446 b 593 500 613 562 607 625 b 595 758 472 838 332 802 b 192 766 89 628 101 495 b 114 356 246 279 390 323 l 174 0 l 258 0 l 557 446 z m 182 506 b 174 597 254 700 349 724 b 444 748 519 705 527 614 b 535 523 464 420 369 396 b 274 372 190 415 182 506 z"}," ":{"x_min":0,"x_max":300,"ha":300,"o":""},"I":{"x_min":0,"x_max":306,"ha":306,"o":"m 50 0 l 135 0 l 276 800 l 191 800 z"},"H":{"x_min":0,"x_max":811,"ha":811,"o":"m 40 0 l 125 0 l 188 360 l 628 360 l 560 0 l 645 0 l 791 800 l 706 800 l 643 440 l 203 440 l 266 800 l 181 800 z"},"4":{"x_min":0,"x_max":680,"ha":680,"o":"m 427 0 l 466 220 l 626 220 l 640 300 l 480 300 l 568 800 l 488 800 l 40 300 l 26 220 l 386 220 l 347 0 z m 140 300 l 463 660 l 400 300 z"},"~":{"x_min":0,"x_max":520,"ha":520,"o":"m 190 300 b 231 300 260 220 330 220 b 410 220 440 290 440 350 l 381 350 b 381 320 360 300 330 300 b 290 300 260 380 190 380 b 110 380 80 310 80 250 l 139 250 b 139 280 160 300 190 300 z"},"D":{"x_min":0,"x_max":752,"ha":752,"o":"m 382 720 b 559 720 667 577 636 400 b 605 223 426 80 249 80 l 139 80 l 252 720 z m 245 0 b 466 0 677 179 716 400 b 755 621 607 800 386 800 l 181 800 l 40 0 z"},"^":{"x_min":0,"x_max":438,"ha":438,"o":"m 398 400 l 328 800 l 250 800 l 40 400 l 113 400 l 277 710 l 333 400 z"},"0":{"x_min":0,"x_max":680,"ha":680,"o":"m 150 400 b 181 577 303 730 408 730 b 513 730 561 577 530 400 b 499 223 376 70 271 70 b 166 70 119 223 150 400 z m 70 400 b 31 179 118 -10 267 -10 b 416 -10 571 179 610 400 b 649 621 561 810 412 810 b 263 810 109 621 70 400 z"},"F":{"x_min":0,"x_max":666,"ha":666,"o":"m 125 0 l 188 360 l 548 360 l 563 440 l 203 440 l 252 720 l 652 720 l 666 800 l 181 800 l 40 0 z"},"`":{"x_min":0,"x_max":350,"ha":350,"o":"m 220 870 l 310 870 l 210 970 l 120 970 z"},"k":{"x_min":0,"x_max":571,"ha":571,"o":"m 186 349 l 231 600 l 146 600 l 40 0 l 125 0 l 163 213 l 232 282 l 413 0 l 513 0 l 291 342 l 551 600 l 437 600 z"},"u":{"x_min":0,"x_max":582,"ha":582,"o":"m 410 220 b 396 143 320 70 243 70 b 166 70 114 133 128 210 l 197 600 l 112 600 l 43 210 b 22 89 117 -10 239 -10 b 361 -10 472 89 493 210 l 562 600 l 477 600 z"},"]":{"x_min":0,"x_max":486,"ha":486,"o":"m 161 800 l 147 720 l 307 720 l 194 80 l 34 80 l 20 0 l 265 0 l 406 800 z"},"U":{"x_min":0,"x_max":746,"ha":746,"o":"m 136 800 l 44 280 b 16 120 138 -10 298 -10 b 458 -10 606 120 634 280 l 726 800 l 641 800 l 551 290 b 531 174 418 70 302 70 b 186 70 108 164 129 280 l 221 800 z"},"o":{"x_min":0,"x_max":670,"ha":670,"o":"m 125 295 b 147 422 273 530 395 530 b 517 530 587 432 565 305 b 543 178 416 70 294 70 b 172 70 103 168 125 295 z m 45 300 b 15 129 124 -10 290 -10 b 456 -10 615 129 645 300 b 675 471 566 610 400 610 b 234 610 75 471 45 300 z"},"N":{"x_min":0,"x_max":811,"ha":811,"o":"m 125 0 l 241 660 l 565 0 l 650 0 l 791 800 l 706 800 l 590 140 l 266 800 l 181 800 l 40 0 z"},"+":{"x_min":0,"x_max":579,"ha":579,"o":"m 297 120 l 325 280 l 485 280 l 499 360 l 339 360 l 368 520 l 283 520 l 254 360 l 94 360 l 80 280 l 240 280 l 212 120 z"},"G":{"x_min":0,"x_max":827,"ha":827,"o":"m 374 -10 b 505 -10 632 54 723 154 l 767 400 l 527 400 l 512 320 l 664 320 l 640 183 b 569 115 474 70 378 70 b 201 70 95 218 127 400 b 159 582 338 730 515 730 b 591 730 645 702 692 657 l 753 720 b 694 776 614 810 519 810 b 298 810 87 637 47 410 b 7 183 153 -10 374 -10 z"},"q":{"x_min":0,"x_max":710,"ha":710,"o":"m 125 295 b 147 422 273 530 395 530 b 517 530 587 432 565 305 b 556 255 531 208 496 169 l 435 250 l 334 250 l 435 116 b 392 87 342 70 294 70 b 172 70 103 168 125 295 z m 45 300 b 15 129 124 -10 290 -10 b 358 -10 425 14 482 53 l 522 0 l 622 0 l 544 105 b 595 158 632 226 645 300 b 675 471 566 610 400 610 b 234 610 75 471 45 300 z"},"d":{"x_min":0,"x_max":603,"ha":603,"o":"m 317 520 b 439 520 509 422 488 300 b 467 178 351 80 229 80 l 139 80 l 217 520 z m 215 0 b 381 0 539 129 568 295 b 597 461 487 600 321 600 l 146 600 l 40 0 z"},"1":{"x_min":0,"x_max":680,"ha":680,"o":"m 272 720 l 352 720 l 225 0 l 305 0 l 446 800 l 286 800 z"},"5":{"x_min":0,"x_max":680,"ha":680,"o":"m 336 420 b 409 420 465 365 472 291 b 480 200 409 100 314 76 b 234 55 162 94 137 160 l 60 121 b 97 23 214 -31 332 -1 b 472 35 566 169 554 302 b 544 412 459 500 350 500 l 293 500 l 400 720 l 606 720 l 620 800 l 356 800 l 168 420 z"}}}
